<?xml version="1.0" standalone="no"?>
<!DOCTYPE svg PUBLIC "-//W3C//DTD SVG 20010904//EN"
 "http://www.w3.org/TR/2001/REC-SVG-20010904/DTD/svg10.dtd">
<svg version="1.0" xmlns="http://www.w3.org/2000/svg"
 width="900.000000pt" height="900.000000pt" viewBox="0 0 900.000000 900.000000"
 preserveAspectRatio="xMidYMid meet">
<metadata>
Created by potrace 1.11, written by Peter Selinger 2001-2013
</metadata>
<g transform="translate(0.000000,900.000000) scale(0.100000,-0.100000)"
fill="#000000" stroke="none">
<path d="M0 4500 l0 -4500 4500 0 4500 0 0 4500 0 4500 -4500 0 -4500 0 0
-4500z m4920 408 l0 -901 128 125 c233 229 431 327 691 344 400 26 672 -170
765 -552 36 -146 38 -195 45 -1014 8 -868 8 -868 53 -955 34 -65 121 -114 241
-137 l67 -13 0 -47 0 -48 -635 0 -635 0 0 49 0 48 50 7 c74 10 179 44 227 74
51 32 79 79 100 169 14 58 17 171 20 758 5 728 0 870 -38 1005 -20 74 -65 169
-96 206 -117 137 -402 155 -623 38 -84 -44 -188 -122 -273 -205 l-68 -65 3
-855 c3 -781 5 -859 21 -914 10 -32 30 -75 44 -93 34 -46 126 -87 240 -109
l93 -18 0 -47 0 -48 -650 0 -650 0 0 49 0 48 50 7 c144 19 248 74 285 151 44
91 48 146 54 789 l6 610 205 70 205 71 3 47 3 47 -114 0 c-190 0 -248 27 -283
132 -17 49 -19 118 -24 809 -6 803 -6 800 -56 859 -37 44 -83 56 -211 55
l-113 -2 0 48 0 47 188 55 c103 31 293 90 422 131 129 41 241 76 248 76 9 1
12 -186 12 -901z"/>
</g>
</svg>
