<svg id="Layer_1" data-name="Layer 1" xmlns="http://www.w3.org/2000/svg" viewBox="0 0 150 150"><defs><style>.cls-1{fill:#b78958;}.cls-2{fill:#5e1e12;}.cls-3{fill:#fff;}.cls-4{fill:#6b1c56;}</style></defs><title>dn-pin-colours</title><path class="cls-1" d="M75,0A51.83,51.83,0,0,0,23.23,51.77c0,27.58,46.93,93.87,48.87,96.77a3.63,3.63,0,0,0,5.81,0c1.94-2.9,48.87-69.19,48.87-96.77A51.83,51.83,0,0,0,75,0Z"/><path class="cls-2" d="M75,1a50.83,50.83,0,0,1,50.77,50.77c0,10.77-7.25,28.82-21.55,53.65-7.44,12.93-16.33,26.88-26.4,41.47l-.75,1.1,0,.05,0,.06a2.69,2.69,0,0,1-4,0l0-.06,0-.05-.75-1.1c-10.08-14.59-19-28.54-26.4-41.47C31.48,80.59,24.23,62.54,24.23,51.77A50.83,50.83,0,0,1,75,1m0-1A51.83,51.83,0,0,0,23.23,51.77c0,27.58,46.93,93.87,48.87,96.77a3.63,3.63,0,0,0,5.81,0c1.94-2.9,48.87-69.19,48.87-96.77A51.83,51.83,0,0,0,75,0Z"/><path class="cls-3" d="M69.57,87q3.3-.44,4.33-1.63t1-5.62V41.1a7.22,7.22,0,0,0-.58-3.32q-.58-1.07-2.84-1.07a6.12,6.12,0,0,0-.87.06l-.95.14V35.47l4.37-1.27q2.6-.74,3.6-1.07l3.87-1.21.08.28V56.93a26.37,26.37,0,0,1,4.51-4.27,13.32,13.32,0,0,1,7.65-2.42q6.52,0,8.9,5.48A19,19,0,0,1,104,63.34V79.77q0,4.27,1,5.56T109,87v1.13H91.56V87q3.5-.48,4.51-1.65t1-5.6V63.46a13.26,13.26,0,0,0-1.31-6.32q-1.31-2.42-4.93-2.42A9.88,9.88,0,0,0,84.75,57q-2.94,2.26-2.94,2.94V79.77q0,4.51,1,5.64T87.33,87v1.13H69.57Z"/><path class="cls-4" d="M78.93,62.34q-2.74,0-3.37-1a7.36,7.36,0,0,1-.63-3.61V41.1a7.22,7.22,0,0,0-.58-3.32q-.58-1.07-2.84-1.07a6.12,6.12,0,0,0-.87.06l-.95.14V35.47l4.37-1.27.92-.27,0-8.65q0-2.34,0-4.74t.08-4.66l.08-4.17L75,11.63q-1.47.56-2.1.75-1.35.48-3.13,1t-3.57,1l-3.25.83v1.31l1.59-.16a7.78,7.78,0,0,1,.83,0q2,0,2.56.91a7.2,7.2,0,0,1,.54,3.33V33.18a12.71,12.71,0,0,0-3.06-2.3A11.27,11.27,0,0,0,60,29.61q-7.26,0-12.28,6.17a22.68,22.68,0,0,0-5,14.78,18.75,18.75,0,0,0,4.19,12.08,13.35,13.35,0,0,0,10.93,5.22,12.52,12.52,0,0,0,6.71-1.79,20.72,20.72,0,0,0,3.85-3.45V67.5l.28.36,6.23-2.34,5.75-2V62.22a6.42,6.42,0,0,1-.87.1Zm-10.51-4a5.05,5.05,0,0,1-1.9,3.45,6.92,6.92,0,0,1-5,1.83,9.62,9.62,0,0,1-8.83-5,21.94,21.94,0,0,1-3-11.39,20.1,20.1,0,0,1,2.78-10.89,8.71,8.71,0,0,1,7.78-4.42A8.88,8.88,0,0,1,65.66,34q2.76,2.12,2.76,7.28Z"/></svg>