<svg id="Layer_1" data-name="Layer 1" xmlns="http://www.w3.org/2000/svg" viewBox="0 0 150 150"><defs><style>.cls-1{fill:#108923;}.cls-2{fill:#fff;}</style></defs><title>dh-pin-available</title><path class="cls-1" d="M75,0A51.83,51.83,0,0,0,23.23,51.77c0,27.58,46.93,93.87,48.87,96.77a3.63,3.63,0,0,0,5.81,0c1.94-2.9,48.87-69.19,48.87-96.77A51.83,51.83,0,0,0,75,0Z"/><path class="cls-2" d="M105,85.33q-1-1.29-1-5.56V63.34a19,19,0,0,0-1.29-7.61q-2.38-5.48-8.9-5.48a13.32,13.32,0,0,0-7.65,2.42,26.37,26.37,0,0,0-4.51,4.27V32.2l-.08-.28-3.87,1.21c-.54.17-1.45.44-2.68.8l0-8.65q0-2.34,0-4.74t.08-4.66l.08-4.17L75,11.63q-1.47.56-2.1.75-1.35.48-3.13,1t-3.57,1l-3.25.83v1.31l1.59-.16a7.77,7.77,0,0,1,.83,0q2,0,2.56.91a7.2,7.2,0,0,1,.54,3.33V33.18a12.71,12.71,0,0,0-3.06-2.3A11.27,11.27,0,0,0,60,29.61q-7.26,0-12.28,6.17a22.68,22.68,0,0,0-5,14.78,18.75,18.75,0,0,0,4.19,12.08,13.35,13.35,0,0,0,10.93,5.22,12.52,12.52,0,0,0,6.71-1.79,20.72,20.72,0,0,0,3.85-3.45V67.5l.28.36,6.23-2.34V79.77q0,4.43-1,5.62T69.57,87v1.13H87.33V87q-3.42-.48-4.47-1.61t-1-5.64V59.91q0-.68,2.94-2.94a9.88,9.88,0,0,1,6.08-2.26q3.62,0,4.93,2.42a13.26,13.26,0,0,1,1.31,6.32V79.77q0,4.43-1,5.6T91.56,87v1.13H109V87Q105.94,86.62,105,85.33Zm-36.53-27a5.05,5.05,0,0,1-1.9,3.45,6.92,6.92,0,0,1-5,1.83,9.62,9.62,0,0,1-8.83-5,21.94,21.94,0,0,1-3-11.39,20.1,20.1,0,0,1,2.78-10.89,8.71,8.71,0,0,1,7.78-4.42A8.88,8.88,0,0,1,65.66,34q2.76,2.12,2.76,7.28Z"/></svg>