<?xml version="1.0" encoding="utf-8"?>
<!-- Generator: Adobe Illustrator 21.1.0, SVG Export Plug-In . SVG Version: 6.00 Build 0)  -->
<svg version="1.1" id="like_us_on_facebook" xmlns="http://www.w3.org/2000/svg" xmlns:xlink="http://www.w3.org/1999/xlink"
	 x="0px" y="0px" viewBox="0 0 800 450" style="enable-background:new 0 0 800 450;" xml:space="preserve">
<style type="text/css">
	.st0{fill:#FFFFFF;}
	.st1{fill:#758DB3;}
	.st2{fill:#32353A;}
</style>
<title>Like Our Facebook Page</title>
<g>
	<path class="st0" d="M425,82.4c-7.5-1-15,2.1-19.6,8.1v-2.1l0,0V49.8l-20,2.4v94.5h20v-5.8c2.5,2.1,5.4,3.9,8.4,5.3
		c11.7,4.2,27,0.8,32.4-14.8c3.3-9.8,3.5-20.4,0.8-30.4C444.8,90.5,435.8,82.8,425,82.4z M428,123.3c-0.6,5.6-5.8,9.7-11.4,9.1
		c-0.1,0-0.2,0-0.3,0c-1.4-0.1-2.7-0.4-4-0.9c-3.7-2.1-6.2-5.9-6.7-10.1l0,0c-0.3-4.4-0.7-13.7,1.5-18.1c1.9-3.4,5.4-5.4,9.3-5.3
		c5.5-0.8,10.7,3.1,11.4,8.6c0,0.1,0,0.2,0,0.3C428.7,112.2,428.7,117.8,428,123.3z"/>
	<path class="st0" d="M496,83.5c-6.9-1.9-14.1-1.9-20.9,0c-9.9,2.1-17.6,9.9-19.6,19.8c-1.2,5.8-1.5,11.7-1.1,17.6
		c0.3,12.7,9.4,23.5,21.9,25.9h0.5l0,0l1.5,0.3h0.5c0.6,0,1.4,0.2,2.2,0.3c2.8,0.3,5.6,0.3,8.4,0h0.4c12.8-0.3,23.7-9.4,26.3-21.9
		c1.6-7,1.6-14.2,0-21.2C514,94,506.2,85.8,496,83.5z M496.8,122.2c0,0.4,0,0.8-0.2,1.2c-1.3,6.1-7.3,10-13.4,8.7
		c-4.8-1-8.4-5-8.9-9.9c-0.4-4.5-0.4-9,0-13.5c0.3-6.3,5.7-11.1,12-10.8c4.9,0.3,9.1,3.7,10.4,8.4
		C497.4,111.7,497.4,117,496.8,122.2L496.8,122.2z"/>
	<path class="st0" d="M195.5,83.2h-14.3v-9.5c1-9,15.9-7.3,15.9-7.3V51l0,0c-0.5-0.1-29.5-7-35.2,15.1l0,0l0,0
		c-0.7,5.6-1,11.2-0.8,16.9h-12.4v16.9h13.2v46.2h19.1v-46h14.6l1.7-16.9H195.5z"/>
	<path class="st0" d="M241.2,91.3l-0.7-0.7l0,0l0,0l-0.5-0.5l0,0c-2.5-3.2-5.9-5.6-9.8-6.7c-12.9-4.1-26.6,3-30.7,15.9
		c-0.1,0.3-0.2,0.7-0.3,1c-2.4,8.3-2.8,17.1-1.1,25.5c3.4,18.4,16.9,24.6,31.6,21.5c4.4-1.1,8.3-3.8,10.9-7.6c0.2-0.3,0.4-0.7,0.6-1
		v8.1h18.7V83.3h-18.7C241.2,83.3,241.2,91.3,241.2,91.3z M239.5,123.2c-0.5,5.5-5.4,9.6-11,9.1c-5.3,0.2-9.9-3.6-10.8-8.8
		c-0.8-5.9-0.7-12,0.4-17.9c1.2-5,5.9-8.3,10.9-7.7c5.4-0.2,9.9,3.9,10.4,9.2C240.1,112.5,240.1,117.8,239.5,123.2z"/>
	<path class="st0" d="M316.9,142.1c-0.9-3.2-1.9-6.3-2.8-9.3l-0.9-3.4c0,0-23.4,11.2-27-10.1c-0.3-3.5-0.3-7.1,0.2-10.6
		c0.4-6,5.3-10.6,11.3-10.7c2.2-0.2,4.4-0.1,6.5,0.3c2.9,0.5,5.7,1.3,8.9,2.2c1.1-3.4,2.2-6.7,3.4-10.1c0-0.5,0.3-1,0.4-1.4l0,0
		l0.5-2c-0.2-0.3-0.5-0.6-0.9-0.8l0,0c-0.9-0.6-1.9-1.1-2.9-1.3l-1.7-0.6l-0.8-0.3l0,0c-6.2-1.6-12.7-2-19.1-1.2
		c-12.7,0.6-23.3,10-25.2,22.6c-1.3,6.9-1.3,14,0.3,20.9c1.7,9.9,9.1,17.8,18.9,20.2c6.6,1.8,13.5,2.2,20.2,1
		c3.5-0.7,6.9-1.8,10.2-3.1l1.1-0.4L316.9,142.1L316.9,142.1z"/>
	<path class="st0" d="M378.5,117.3c0.1-4.4-0.2-8.7-0.6-13.1c-1-11-9.5-19.9-20.5-21.2c-4.5-0.6-9-0.7-13.5-0.2
		c-12.4,1.2-21.7,8.9-23.6,20.4c-1.2,7.1-1.3,14.4-0.4,21.5c1.4,10.6,6.7,17.3,15.5,20.6l0,0c4.1,1.2,24,6.4,41.6-2.4l-0.6-2.5l0,0
		c-0.8-3.4-1.8-6.7-2.7-10.1v-0.3l-1,0.3l0,0l-2.3,0.7l-0.7-0.1c-3.4,1-6.9,1.7-10.5,2.2c-3.4,0.3-6.8,0.3-10.1,0
		c-5.6-0.7-9.8-3.7-9.8-10.8h36.9h2.5c0,0,0-0.6,0-0.7L378.5,117.3z M360.5,108.7h-21.6c0-4.3,0.6-8.3,4.5-10.7
		c3.8-2.6,8.8-2.7,12.8-0.4C360.3,99.9,360.6,104.1,360.5,108.7z"/>
	<polygon class="st0" points="651.4,83.9 630.2,83.9 611.8,112.8 611.8,52.6 611.8,52.2 611.8,49.8 591.8,52.2 591.8,146.6 
		611.8,146.6 611.8,117.7 630.2,146.6 651.4,146.6 631.4,115.3 	"/>
	<path class="st0" d="M564.2,83.5c-6.9-1.9-14.1-1.9-20.9,0c-9.9,2.1-17.6,9.9-19.6,19.8c-1.2,5.8-1.5,11.7-1.1,17.6
		c0.3,12.7,9.4,23.5,21.9,25.9h0.5l0,0l1.5,0.3h0.5c0.6,0,1.4,0.2,2.2,0.3c2.8,0.3,5.6,0.3,8.4,0h0.4c12.8-0.3,23.7-9.3,26.3-21.9
		c1.6-7,1.6-14.2,0-21.2C582.3,94,574.5,85.8,564.2,83.5z M565.1,122.2c0,0.4,0,0.8-0.2,1.2c-1.3,6.1-7.3,10-13.4,8.7
		c-4.8-1-8.4-5-8.9-9.9c-0.4-4.5-0.4-9,0-13.5c0.3-6.3,5.7-11.1,12-10.8c4.9,0.2,9.2,3.7,10.5,8.4
		C565.7,111.6,565.7,116.9,565.1,122.2L565.1,122.2z"/>
	<path class="st0" d="M469,326.2l-1.5-1.5l1.3-1.7c1.8-2.4,2.8-5.2,2.9-8.2c0-3.5-1.4-6.9-3.9-9.4c-2.7-2.7-6.3-4.2-10.1-4.3h-36.9
		l0.4-2.7l2.2-14.3c0.2-1.7,0.3-3.4,0.3-5.1c0-12.8-8.7-28.2-19.5-28.2c-3,0-5.9,1.1-8.3,3l-0.3,0.3l1.7,22.3c0.2,2.5-0.4,4.9-1.7,7
		l-18.7,34.7l-0.2,0.4l-0.3,0.3l-0.7,0.6l-3.2,2.7l-0.6,56.7l3.8,3.4l0,0c4.1,3.2,9,5,14.2,5.2h55c7.4-0.3,13.2-6.6,12.9-14.1
		c0-0.9-0.2-1.8-0.4-2.7l-0.5-1.9l1.8-0.8c6.9-2.9,10-10.9,7.1-17.7c0,0,0,0,0,0l-0.8-1.9l1.7-1c4-2.5,6.5-6.8,6.5-11.6
		C473.2,332.2,471.7,328.7,469,326.2z"/>
	<path class="st1" d="M328,316.1c-0.1,0-0.2,0.1-0.2,0.2v74.2c0,0.1,0.1,0.2,0.2,0.2h42.8c0.1,0,0.2-0.1,0.2-0.2v-74.2
		c0-0.1-0.1-0.2-0.2-0.2L328,316.1z"/>
	<path class="st2" d="M475.4,335.8c0-4.3-1.7-8.4-4.8-11.3c2.2-2.8,3.4-6.2,3.4-9.7c0-4.2-1.7-8.2-4.6-11.1
		c-3.1-3.1-7.4-4.9-11.8-4.9h-34.2l2.2-14.3c0.3-1.8,0.4-3.6,0.4-5.5c0-14.1-9.5-30.4-21.8-30.4c-3.5,0-7,1.2-9.8,3.4l-1.3,1
		l1.8,23.6c0.1,2-0.3,4-1.4,5.7l-18.7,34.7l-0.7,0.6c-0.5-3.2-3.3-5.6-6.5-5.6h-36.4c-3.7,0-6.7,3-6.7,6.7v68.4c0,3.7,3,6.7,6.7,6.7
		h36.4c3.7,0,6.7-3,6.7-6.7v-3.4l0,0c4.4,3.6,9.9,5.6,15.5,5.9h55c8.7-0.5,15.4-8,15-16.7c-0.1-1-0.2-1.9-0.4-2.9
		c8-3.4,11.7-12.7,8.4-20.8C472.6,346.6,475.5,341.4,475.4,335.8z M367.8,387.3c0,0.1-0.1,0.2-0.2,0.2h-36.4c-0.1,0-0.2-0.1-0.2-0.2
		v-68.6c0-0.1,0.1-0.2,0.2-0.2h36.4c0.1,0,0.2,0.1,0.2,0.2C367.8,318.7,367.8,387.3,367.8,387.3z M462.3,344.7l-4.4,1.4l2.8,3.8
		c3.1,4.2,2.3,10.1-1.8,13.2c-1.2,0.9-2.6,1.5-4.2,1.8l-4.4,0.7l2,3.9c0.7,1.3,1.1,2.7,1.1,4.2c0,5-3.9,9.1-8.9,9.4h-54.8
		c-4.2-0.2-8.3-1.7-11.6-4.3c-0.9-0.8-1.9-1.5-3-2l-1.2-0.5v-50.6l5.7-4.6l19.2-35.7c1.7-2.8,2.5-6.1,2.3-9.4l-1.2-20
		c1.3-0.8,2.8-1.1,4.4-1.1c8.3,0,15.4,13.3,15.4,24.1c0,1.5-0.1,3-0.3,4.5l-3.4,21.7h41.6c2.7,0,5.3,1.1,7.2,3
		c1.7,1.7,2.7,4.1,2.6,6.5c0,3-1.4,5.7-3.8,7.5l-3.9,2.9l4.2,2.4c4.6,2.6,6.2,8.4,3.6,12.9c-1.2,2.1-3.1,3.7-5.4,4.4L462.3,344.7z"
		/>
</g>
</svg>
