<svg style="position: absolute; width: 0; height: 0; overflow: hidden;" version="1.1" xmlns="http://www.w3.org/2000/svg" xmlns:xlink="http://www.w3.org/1999/xlink">
<defs>
<symbol id="icon-search" viewBox="0 0 30 32">
<path class="path1" d="M20.571 14.857q0-3.304-2.348-5.652t-5.652-2.348-5.652 2.348-2.348 5.652 2.348 5.652 5.652 2.348 5.652-2.348 2.348-5.652zM29.714 29.714q0 0.929-0.679 1.607t-1.607 0.679q-0.964 0-1.607-0.679l-6.125-6.107q-3.196 2.214-7.125 2.214-2.554 0-4.884-0.991t-4.018-2.679-2.679-4.018-0.991-4.884 0.991-4.884 2.679-4.018 4.018-2.679 4.884-0.991 4.884 0.991 4.018 2.679 2.679 4.018 0.991 4.884q0 3.929-2.214 7.125l6.125 6.125q0.661 0.661 0.661 1.607z"></path>
</symbol>
<symbol id="icon-envelope-o" viewBox="0 0 32 32">
<path class="path1" d="M29.714 26.857v-13.714q-0.571 0.643-1.232 1.179-4.786 3.679-7.607 6.036-0.911 0.768-1.482 1.196t-1.545 0.866-1.83 0.438h-0.036q-0.857 0-1.83-0.438t-1.545-0.866-1.482-1.196q-2.821-2.357-7.607-6.036-0.661-0.536-1.232-1.179v13.714q0 0.232 0.17 0.402t0.402 0.17h26.286q0.232 0 0.402-0.17t0.17-0.402zM29.714 8.089v-0.438t-0.009-0.232-0.054-0.223-0.098-0.161-0.161-0.134-0.25-0.045h-26.286q-0.232 0-0.402 0.17t-0.17 0.402q0 3 2.625 5.071 3.446 2.714 7.161 5.661 0.107 0.089 0.625 0.527t0.821 0.67 0.795 0.563 0.902 0.491 0.768 0.161h0.036q0.357 0 0.768-0.161t0.902-0.491 0.795-0.563 0.821-0.67 0.625-0.527q3.714-2.946 7.161-5.661 0.964-0.768 1.795-2.063t0.83-2.348zM32 7.429v19.429q0 1.179-0.839 2.018t-2.018 0.839h-26.286q-1.179 0-2.018-0.839t-0.839-2.018v-19.429q0-1.179 0.839-2.018t2.018-0.839h26.286q1.179 0 2.018 0.839t0.839 2.018z"></path>
</symbol>
<symbol id="icon-close" viewBox="0 0 25 32">
<path class="path1" d="M23.179 23.607q0 0.714-0.5 1.214l-2.429 2.429q-0.5 0.5-1.214 0.5t-1.214-0.5l-5.25-5.25-5.25 5.25q-0.5 0.5-1.214 0.5t-1.214-0.5l-2.429-2.429q-0.5-0.5-0.5-1.214t0.5-1.214l5.25-5.25-5.25-5.25q-0.5-0.5-0.5-1.214t0.5-1.214l2.429-2.429q0.5-0.5 1.214-0.5t1.214 0.5l5.25 5.25 5.25-5.25q0.5-0.5 1.214-0.5t1.214 0.5l2.429 2.429q0.5 0.5 0.5 1.214t-0.5 1.214l-5.25 5.25 5.25 5.25q0.5 0.5 0.5 1.214z"></path>
</symbol>
<symbol id="icon-angle-down" viewBox="0 0 21 32">
<path class="path1" d="M19.196 13.143q0 0.232-0.179 0.411l-8.321 8.321q-0.179 0.179-0.411 0.179t-0.411-0.179l-8.321-8.321q-0.179-0.179-0.179-0.411t0.179-0.411l0.893-0.893q0.179-0.179 0.411-0.179t0.411 0.179l7.018 7.018 7.018-7.018q0.179-0.179 0.411-0.179t0.411 0.179l0.893 0.893q0.179 0.179 0.179 0.411z"></path>
</symbol>
<symbol id="icon-folder-open" viewBox="0 0 34 32">
<path class="path1" d="M33.554 17q0 0.554-0.554 1.179l-6 7.071q-0.768 0.911-2.152 1.545t-2.563 0.634h-19.429q-0.607 0-1.080-0.232t-0.473-0.768q0-0.554 0.554-1.179l6-7.071q0.768-0.911 2.152-1.545t2.563-0.634h19.429q0.607 0 1.080 0.232t0.473 0.768zM27.429 10.857v2.857h-14.857q-1.679 0-3.518 0.848t-2.929 2.134l-6.107 7.179q0-0.071-0.009-0.223t-0.009-0.223v-17.143q0-1.643 1.179-2.821t2.821-1.179h5.714q1.643 0 2.821 1.179t1.179 2.821v0.571h9.714q1.643 0 2.821 1.179t1.179 2.821z"></path>
</symbol>
<symbol id="icon-twitter" viewBox="0 0 30 32">
<path class="path1" d="M28.929 7.286q-1.196 1.75-2.893 2.982 0.018 0.25 0.018 0.75 0 2.321-0.679 4.634t-2.063 4.437-3.295 3.759-4.607 2.607-5.768 0.973q-4.839 0-8.857-2.589 0.625 0.071 1.393 0.071 4.018 0 7.161-2.464-1.875-0.036-3.357-1.152t-2.036-2.848q0.589 0.089 1.089 0.089 0.768 0 1.518-0.196-2-0.411-3.313-1.991t-1.313-3.67v-0.071q1.214 0.679 2.607 0.732-1.179-0.786-1.875-2.054t-0.696-2.75q0-1.571 0.786-2.911 2.161 2.661 5.259 4.259t6.634 1.777q-0.143-0.679-0.143-1.321 0-2.393 1.688-4.080t4.080-1.688q2.5 0 4.214 1.821 1.946-0.375 3.661-1.393-0.661 2.054-2.536 3.179 1.661-0.179 3.321-0.893z"></path>
</symbol>
<symbol id="icon-facebook" viewBox="0 0 19 32">
<path class="path1" d="M17.125 0.214v4.714h-2.804q-1.536 0-2.071 0.643t-0.536 1.929v3.375h5.232l-0.696 5.286h-4.536v13.554h-5.464v-13.554h-4.554v-5.286h4.554v-3.893q0-3.321 1.857-5.152t4.946-1.83q2.625 0 4.071 0.214z"></path>
</symbol>
<symbol id="icon-bars" viewBox="0 0 27 32">
<path class="path1" d="M27.429 24v2.286q0 0.464-0.339 0.804t-0.804 0.339h-25.143q-0.464 0-0.804-0.339t-0.339-0.804v-2.286q0-0.464 0.339-0.804t0.804-0.339h25.143q0.464 0 0.804 0.339t0.339 0.804zM27.429 14.857v2.286q0 0.464-0.339 0.804t-0.804 0.339h-25.143q-0.464 0-0.804-0.339t-0.339-0.804v-2.286q0-0.464 0.339-0.804t0.804-0.339h25.143q0.464 0 0.804 0.339t0.339 0.804zM27.429 5.714v2.286q0 0.464-0.339 0.804t-0.804 0.339h-25.143q-0.464 0-0.804-0.339t-0.339-0.804v-2.286q0-0.464 0.339-0.804t0.804-0.339h25.143q0.464 0 0.804 0.339t0.339 0.804z"></path>
</symbol>
<symbol id="icon-quote-right" viewBox="0 0 30 32">
<path class="path1" d="M13.714 5.714v12.571q0 1.857-0.723 3.545t-1.955 2.92-2.92 1.955-3.545 0.723h-1.143q-0.464 0-0.804-0.339t-0.339-0.804v-2.286q0-0.464 0.339-0.804t0.804-0.339h1.143q1.893 0 3.232-1.339t1.339-3.232v-0.571q0-0.714-0.5-1.214t-1.214-0.5h-4q-1.429 0-2.429-1t-1-2.429v-6.857q0-1.429 1-2.429t2.429-1h6.857q1.429 0 2.429 1t1 2.429zM29.714 5.714v12.571q0 1.857-0.723 3.545t-1.955 2.92-2.92 1.955-3.545 0.723h-1.143q-0.464 0-0.804-0.339t-0.339-0.804v-2.286q0-0.464 0.339-0.804t0.804-0.339h1.143q1.893 0 3.232-1.339t1.339-3.232v-0.571q0-0.714-0.5-1.214t-1.214-0.5h-4q-1.429 0-2.429-1t-1-2.429v-6.857q0-1.429 1-2.429t2.429-1h6.857q1.429 0 2.429 1t1 2.429z"></path>
</symbol>
<symbol id="icon-mail-reply" viewBox="0 0 32 32">
<path class="path1" d="M32 20q0 2.964-2.268 8.054-0.054 0.125-0.188 0.429t-0.241 0.536-0.232 0.393q-0.214 0.304-0.5 0.304-0.268 0-0.42-0.179t-0.152-0.446q0-0.161 0.045-0.473t0.045-0.42q0.089-1.214 0.089-2.196 0-1.804-0.313-3.232t-0.866-2.473-1.429-1.804-1.884-1.241-2.375-0.759-2.75-0.384-3.134-0.107h-4v4.571q0 0.464-0.339 0.804t-0.804 0.339-0.804-0.339l-9.143-9.143q-0.339-0.339-0.339-0.804t0.339-0.804l9.143-9.143q0.339-0.339 0.804-0.339t0.804 0.339 0.339 0.804v4.571h4q12.732 0 15.625 7.196 0.946 2.393 0.946 5.946z"></path>
</symbol>
<symbol id="icon-youtube" viewBox="0 0 27 32">
<path class="path1" d="M17.339 22.214v3.768q0 1.196-0.696 1.196-0.411 0-0.804-0.393v-5.375q0.393-0.393 0.804-0.393 0.696 0 0.696 1.196zM23.375 22.232v0.821h-1.607v-0.821q0-1.214 0.804-1.214t0.804 1.214zM6.125 18.339h1.911v-1.679h-5.571v1.679h1.875v10.161h1.786v-10.161zM11.268 28.5h1.589v-8.821h-1.589v6.75q-0.536 0.75-1.018 0.75-0.321 0-0.375-0.375-0.018-0.054-0.018-0.625v-6.5h-1.589v6.982q0 0.875 0.143 1.304 0.214 0.661 1.036 0.661 0.857 0 1.821-1.089v0.964zM18.929 25.857v-3.518q0-1.304-0.161-1.768-0.304-1-1.268-1-0.893 0-1.661 0.964v-3.875h-1.589v11.839h1.589v-0.857q0.804 0.982 1.661 0.982 0.964 0 1.268-0.982 0.161-0.482 0.161-1.786zM24.964 25.679v-0.232h-1.625q0 0.911-0.036 1.089-0.125 0.643-0.714 0.643-0.821 0-0.821-1.232v-1.554h3.196v-1.839q0-1.411-0.482-2.071-0.696-0.911-1.893-0.911-1.214 0-1.911 0.911-0.5 0.661-0.5 2.071v3.089q0 1.411 0.518 2.071 0.696 0.911 1.929 0.911 1.286 0 1.929-0.946 0.321-0.482 0.375-0.964 0.036-0.161 0.036-1.036zM14.107 9.375v-3.75q0-1.232-0.768-1.232t-0.768 1.232v3.75q0 1.25 0.768 1.25t0.768-1.25zM26.946 22.786q0 4.179-0.464 6.25-0.25 1.054-1.036 1.768t-1.821 0.821q-3.286 0.375-9.911 0.375t-9.911-0.375q-1.036-0.107-1.83-0.821t-1.027-1.768q-0.464-2-0.464-6.25 0-4.179 0.464-6.25 0.25-1.054 1.036-1.768t1.839-0.839q3.268-0.357 9.893-0.357t9.911 0.357q1.036 0.125 1.83 0.839t1.027 1.768q0.464 2 0.464 6.25zM9.125 0h1.821l-2.161 7.125v4.839h-1.786v-4.839q-0.25-1.321-1.089-3.786-0.661-1.839-1.161-3.339h1.893l1.268 4.696zM15.732 5.946v3.125q0 1.446-0.5 2.107-0.661 0.911-1.893 0.911-1.196 0-1.875-0.911-0.5-0.679-0.5-2.107v-3.125q0-1.429 0.5-2.089 0.679-0.911 1.875-0.911 1.232 0 1.893 0.911 0.5 0.661 0.5 2.089zM21.714 3.054v8.911h-1.625v-0.982q-0.946 1.107-1.839 1.107-0.821 0-1.054-0.661-0.143-0.429-0.143-1.339v-7.036h1.625v6.554q0 0.589 0.018 0.625 0.054 0.393 0.375 0.393 0.482 0 1.018-0.768v-6.804h1.625z"></path>
</symbol>
<symbol id="icon-instagram" viewBox="0 0 27 32">
<path class="path1" d="M18.286 16q0-1.893-1.339-3.232t-3.232-1.339-3.232 1.339-1.339 3.232 1.339 3.232 3.232 1.339 3.232-1.339 1.339-3.232zM20.75 16q0 2.929-2.054 4.982t-4.982 2.054-4.982-2.054-2.054-4.982 2.054-4.982 4.982-2.054 4.982 2.054 2.054 4.982zM22.679 8.679q0 0.679-0.482 1.161t-1.161 0.482-1.161-0.482-0.482-1.161 0.482-1.161 1.161-0.482 1.161 0.482 0.482 1.161zM13.714 4.75q-0.125 0-1.366-0.009t-1.884 0-1.723 0.054-1.839 0.179-1.277 0.33q-0.893 0.357-1.571 1.036t-1.036 1.571q-0.196 0.518-0.33 1.277t-0.179 1.839-0.054 1.723 0 1.884 0.009 1.366-0.009 1.366 0 1.884 0.054 1.723 0.179 1.839 0.33 1.277q0.357 0.893 1.036 1.571t1.571 1.036q0.518 0.196 1.277 0.33t1.839 0.179 1.723 0.054 1.884 0 1.366-0.009 1.366 0.009 1.884 0 1.723-0.054 1.839-0.179 1.277-0.33q0.893-0.357 1.571-1.036t1.036-1.571q0.196-0.518 0.33-1.277t0.179-1.839 0.054-1.723 0-1.884-0.009-1.366 0.009-1.366 0-1.884-0.054-1.723-0.179-1.839-0.33-1.277q-0.357-0.893-1.036-1.571t-1.571-1.036q-0.518-0.196-1.277-0.33t-1.839-0.179-1.723-0.054-1.884 0-1.366 0.009zM27.429 16q0 4.089-0.089 5.661-0.179 3.714-2.214 5.75t-5.75 2.214q-1.571 0.089-5.661 0.089t-5.661-0.089q-3.714-0.179-5.75-2.214t-2.214-5.75q-0.089-1.571-0.089-5.661t0.089-5.661q0.179-3.714 2.214-5.75t5.75-2.214q1.571-0.089 5.661-0.089t5.661 0.089q3.714 0.179 5.75 2.214t2.214 5.75q0.089 1.571 0.089 5.661z"></path>
</symbol>
<symbol id="icon-skype" viewBox="0 0 27 32">
<path class="path1" d="M20.946 18.982q0-0.893-0.348-1.634t-0.866-1.223-1.304-0.875-1.473-0.607-1.563-0.411l-1.857-0.429q-0.536-0.125-0.786-0.188t-0.625-0.205-0.536-0.286-0.295-0.375-0.134-0.536q0-1.375 2.571-1.375 0.768 0 1.375 0.214t0.964 0.509 0.679 0.598 0.714 0.518 0.857 0.214q0.839 0 1.348-0.571t0.509-1.375q0-0.982-1-1.777t-2.536-1.205-3.25-0.411q-1.214 0-2.357 0.277t-2.134 0.839-1.589 1.554-0.598 2.295q0 1.089 0.339 1.902t1 1.348 1.429 0.866 1.839 0.58l2.607 0.643q1.607 0.393 2 0.643 0.571 0.357 0.571 1.071 0 0.696-0.714 1.152t-1.875 0.455q-0.911 0-1.634-0.286t-1.161-0.688-0.813-0.804-0.821-0.688-0.964-0.286q-0.893 0-1.348 0.536t-0.455 1.339q0 1.643 2.179 2.813t5.196 1.17q1.304 0 2.5-0.33t2.188-0.955 1.58-1.67 0.589-2.348zM27.429 22.857q0 2.839-2.009 4.848t-4.848 2.009q-2.321 0-4.179-1.429-1.375 0.286-2.679 0.286-2.554 0-4.884-0.991t-4.018-2.679-2.679-4.018-0.991-4.884q0-1.304 0.286-2.679-1.429-1.857-1.429-4.179 0-2.839 2.009-4.848t4.848-2.009q2.321 0 4.179 1.429 1.375-0.286 2.679-0.286 2.554 0 4.884 0.991t4.018 2.679 2.679 4.018 0.991 4.884q0 1.304-0.286 2.679 1.429 1.857 1.429 4.179z"></path>
</symbol>
<symbol id="icon-wordpress" viewBox="0 0 32 32">
<path class="path1" d="M2.268 16q0-2.911 1.196-5.589l6.554 17.946q-3.5-1.696-5.625-5.018t-2.125-7.339zM25.268 15.304q0 0.339-0.045 0.688t-0.179 0.884-0.205 0.786-0.313 1.054-0.313 1.036l-1.357 4.571-4.964-14.75q0.821-0.054 1.571-0.143 0.339-0.036 0.464-0.33t-0.045-0.554-0.509-0.241l-3.661 0.179q-1.339-0.018-3.607-0.179-0.214-0.018-0.366 0.089t-0.205 0.268-0.027 0.33 0.161 0.295 0.348 0.143l1.429 0.143 2.143 5.857-3 9-5-14.857q0.821-0.054 1.571-0.143 0.339-0.036 0.464-0.33t-0.045-0.554-0.509-0.241l-3.661 0.179q-0.125 0-0.411-0.009t-0.464-0.009q1.875-2.857 4.902-4.527t6.563-1.67q2.625 0 5.009 0.946t4.259 2.661h-0.179q-0.982 0-1.643 0.723t-0.661 1.705q0 0.214 0.036 0.429t0.071 0.384 0.143 0.411 0.161 0.375 0.214 0.402 0.223 0.375 0.259 0.429 0.25 0.411q1.125 1.911 1.125 3.786zM16.232 17.196l4.232 11.554q0.018 0.107 0.089 0.196-2.25 0.786-4.554 0.786-2 0-3.875-0.571zM28.036 9.411q1.696 3.107 1.696 6.589 0 3.732-1.857 6.884t-4.982 4.973l4.196-12.107q1.054-3.018 1.054-4.929 0-0.75-0.107-1.411zM16 0q3.25 0 6.214 1.268t5.107 3.411 3.411 5.107 1.268 6.214-1.268 6.214-3.411 5.107-5.107 3.411-6.214 1.268-6.214-1.268-5.107-3.411-3.411-5.107-1.268-6.214 1.268-6.214 3.411-5.107 5.107-3.411 6.214-1.268zM16 31.268q3.089 0 5.92-1.214t4.875-3.259 3.259-4.875 1.214-5.92-1.214-5.92-3.259-4.875-4.875-3.259-5.92-1.214-5.92 1.214-4.875 3.259-3.259 4.875-1.214 5.92 1.214 5.92 3.259 4.875 4.875 3.259 5.92 1.214z"></path>
</symbol>
<symbol id="icon-codepen" viewBox="0 0 32 32">
<path class="path1" d="M3.857 20.875l10.768 7.179v-6.411l-5.964-3.982zM2.75 18.304l3.446-2.304-3.446-2.304v4.607zM17.375 28.054l10.768-7.179-4.804-3.214-5.964 3.982v6.411zM16 19.25l4.857-3.25-4.857-3.25-4.857 3.25zM8.661 14.339l5.964-3.982v-6.411l-10.768 7.179zM25.804 16l3.446 2.304v-4.607zM23.339 14.339l4.804-3.214-10.768-7.179v6.411zM32 11.125v9.75q0 0.732-0.607 1.143l-14.625 9.75q-0.375 0.232-0.768 0.232t-0.768-0.232l-14.625-9.75q-0.607-0.411-0.607-1.143v-9.75q0-0.732 0.607-1.143l14.625-9.75q0.375-0.232 0.768-0.232t0.768 0.232l14.625 9.75q0.607 0.411 0.607 1.143z"></path>
</symbol>
<symbol id="icon-hashtag" viewBox="0 0 32 32">
<path class="path1" d="M17.696 18.286l1.143-4.571h-4.536l-1.143 4.571h4.536zM31.411 9.286l-1 4q-0.125 0.429-0.554 0.429h-5.839l-1.143 4.571h5.554q0.268 0 0.446 0.214 0.179 0.25 0.107 0.5l-1 4q-0.089 0.429-0.554 0.429h-5.839l-1.446 5.857q-0.125 0.429-0.554 0.429h-4q-0.286 0-0.464-0.214-0.161-0.214-0.107-0.5l1.393-5.571h-4.536l-1.446 5.857q-0.125 0.429-0.554 0.429h-4.018q-0.268 0-0.446-0.214-0.161-0.214-0.107-0.5l1.393-5.571h-5.554q-0.268 0-0.446-0.214-0.161-0.214-0.107-0.5l1-4q0.125-0.429 0.554-0.429h5.839l1.143-4.571h-5.554q-0.268 0-0.446-0.214-0.179-0.25-0.107-0.5l1-4q0.089-0.429 0.554-0.429h5.839l1.446-5.857q0.125-0.429 0.571-0.429h4q0.268 0 0.446 0.214 0.161 0.214 0.107 0.5l-1.393 5.571h4.536l1.446-5.857q0.125-0.429 0.571-0.429h4q0.268 0 0.446 0.214 0.161 0.214 0.107 0.5l-1.393 5.571h5.554q0.268 0 0.446 0.214 0.161 0.214 0.107 0.5z"></path>
</symbol>
<symbol id="icon-chain" viewBox="0 0 30 32">
<path class="path1" d="M26 21.714q0-0.714-0.5-1.214l-3.714-3.714q-0.5-0.5-1.214-0.5-0.75 0-1.286 0.571 0.054 0.054 0.339 0.33t0.384 0.384 0.268 0.339 0.232 0.455 0.063 0.491q0 0.714-0.5 1.214t-1.214 0.5q-0.268 0-0.491-0.063t-0.455-0.232-0.339-0.268-0.384-0.384-0.33-0.339q-0.589 0.554-0.589 1.304 0 0.714 0.5 1.214l3.679 3.696q0.482 0.482 1.214 0.482 0.714 0 1.214-0.464l2.625-2.607q0.5-0.5 0.5-1.196zM13.446 9.125q0-0.714-0.5-1.214l-3.679-3.696q-0.5-0.5-1.214-0.5-0.696 0-1.214 0.482l-2.625 2.607q-0.5 0.5-0.5 1.196 0 0.714 0.5 1.214l3.714 3.714q0.482 0.482 1.214 0.482 0.75 0 1.286-0.554-0.054-0.054-0.339-0.33t-0.384-0.384-0.268-0.339-0.232-0.455-0.063-0.491q0-0.714 0.5-1.214t1.214-0.5q0.268 0 0.491 0.063t0.455 0.232 0.339 0.268 0.384 0.384 0.33 0.339q0.589-0.554 0.589-1.304zM29.429 21.714q0 2.143-1.518 3.625l-2.625 2.607q-1.482 1.482-3.625 1.482-2.161 0-3.643-1.518l-3.679-3.696q-1.482-1.482-1.482-3.625 0-2.196 1.571-3.732l-1.571-1.571q-1.536 1.571-3.714 1.571-2.143 0-3.643-1.5l-3.714-3.714q-1.5-1.5-1.5-3.643t1.518-3.625l2.625-2.607q1.482-1.482 3.625-1.482 2.161 0 3.643 1.518l3.679 3.696q1.482 1.482 1.482 3.625 0 2.196-1.571 3.732l1.571 1.571q1.536-1.571 3.714-1.571 2.143 0 3.643 1.5l3.714 3.714q1.5 1.5 1.5 3.643z"></path>
</symbol>
<symbol id="icon-thumb-tack" viewBox="0 0 21 32">
<path class="path1" d="M8.571 15.429v-8q0-0.25-0.161-0.411t-0.411-0.161-0.411 0.161-0.161 0.411v8q0 0.25 0.161 0.411t0.411 0.161 0.411-0.161 0.161-0.411zM20.571 21.714q0 0.464-0.339 0.804t-0.804 0.339h-7.661l-0.911 8.625q-0.036 0.214-0.188 0.366t-0.366 0.152h-0.018q-0.482 0-0.571-0.482l-1.357-8.661h-7.214q-0.464 0-0.804-0.339t-0.339-0.804q0-2.196 1.402-3.955t3.17-1.759v-9.143q-0.929 0-1.607-0.679t-0.679-1.607 0.679-1.607 1.607-0.679h11.429q0.929 0 1.607 0.679t0.679 1.607-0.679 1.607-1.607 0.679v9.143q1.768 0 3.17 1.759t1.402 3.955z"></path>
</symbol>
<symbol id="icon-arrow-left" viewBox="0 0 43 32">
<path class="path1" d="M42.311 14.044c-0.178-0.178-0.533-0.356-0.711-0.356h-33.778l10.311-10.489c0.178-0.178 0.356-0.533 0.356-0.711 0-0.356-0.178-0.533-0.356-0.711l-1.6-1.422c-0.356-0.178-0.533-0.356-0.889-0.356s-0.533 0.178-0.711 0.356l-14.578 14.933c-0.178 0.178-0.356 0.533-0.356 0.711s0.178 0.533 0.356 0.711l14.756 14.933c0 0.178 0.356 0.356 0.533 0.356s0.533-0.178 0.711-0.356l1.6-1.6c0.178-0.178 0.356-0.533 0.356-0.711s-0.178-0.533-0.356-0.711l-10.311-10.489h33.778c0.178 0 0.533-0.178 0.711-0.356 0.356-0.178 0.533-0.356 0.533-0.711v-2.133c0-0.356-0.178-0.711-0.356-0.889z"></path>
</symbol>
<symbol id="icon-arrow-right" viewBox="0 0 43 32">
<path class="path1" d="M0.356 17.956c0.178 0.178 0.533 0.356 0.711 0.356h33.778l-10.311 10.489c-0.178 0.178-0.356 0.533-0.356 0.711 0 0.356 0.178 0.533 0.356 0.711l1.6 1.6c0.178 0.178 0.533 0.356 0.711 0.356s0.533-0.178 0.711-0.356l14.756-14.933c0.178-0.356 0.356-0.711 0.356-0.889s-0.178-0.533-0.356-0.711l-14.756-14.933c0-0.178-0.356-0.356-0.533-0.356s-0.533 0.178-0.711 0.356l-1.6 1.6c-0.178 0.178-0.356 0.533-0.356 0.711s0.178 0.533 0.356 0.711l10.311 10.489h-33.778c-0.178 0-0.533 0.178-0.711 0.356-0.356 0.178-0.533 0.356-0.533 0.711v2.311c0 0.178 0.178 0.533 0.356 0.711z"></path>
</symbol>
<symbol id="icon-play" viewBox="0 0 22 28">
<path d="M21.625 14.484l-20.75 11.531c-0.484 0.266-0.875 0.031-0.875-0.516v-23c0-0.547 0.391-0.781 0.875-0.516l20.75 11.531c0.484 0.266 0.484 0.703 0 0.969z"></path>
</symbol>
<symbol id="icon-pause" viewBox="0 0 24 28">
<path d="M24 3v22c0 0.547-0.453 1-1 1h-8c-0.547 0-1-0.453-1-1v-22c0-0.547 0.453-1 1-1h8c0.547 0 1 0.453 1 1zM10 3v22c0 0.547-0.453 1-1 1h-8c-0.547 0-1-0.453-1-1v-22c0-0.547 0.453-1 1-1h8c0.547 0 1 0.453 1 1z"></path>
</symbol>


<symbol id="icon-phone" viewBox="0 0 27 32">
<path id="phone" fill="currentColor" d="M19,14a19.22,19.22,0,0,1-1.55,2c-.62.7-1.25,1.39-1.91,2s-1.34,1.29-2,1.91a19.21,19.21,0,0,1-2,1.55,5.63,5.63,0,0,1-1.72.81,1.24,1.24,0,0,1-1.24-.28c-.45-.45-.86-.84-1.25-1.2A2.81,2.81,0,0,0,6,20.18a3.09,3.09,0,0,0-1.7.21A9.3,9.3,0,0,0,1.88,21.9,4.76,4.76,0,0,0,.13,24.05a2.75,2.75,0,0,0,.05,1.82,4.28,4.28,0,0,0,1.1,1.55c.5.48,1,.93,1.38,1.34A3.14,3.14,0,0,0,5,29.5a11.66,11.66,0,0,0,3.89-.86,26.34,26.34,0,0,0,4.87-2.56,34,34,0,0,0,5.33-4.42,32.33,32.33,0,0,0,4.42-5.33,26.37,26.37,0,0,0,2.56-4.87A13,13,0,0,0,27,7.55a3.14,3.14,0,0,0-.74-2.39c-.43-.41-.88-.88-1.34-1.38a4.28,4.28,0,0,0-1.55-1.1,2.64,2.64,0,0,0-1.82-.05A4.91,4.91,0,0,0,19.4,4.39a9.3,9.3,0,0,0-1.51,2.42,3.09,3.09,0,0,0-.21,1.7,2.67,2.67,0,0,0,.69,1.32c.36.4.76.81,1.2,1.25a1.24,1.24,0,0,1,.28,1.24A5.45,5.45,0,0,1,19,14Z"/>
</symbol>

<symbol id="icon-home" viewBox="0 0 27 32">
<path id="home" fill="currentColor" d="M21.69,11.76V5.26A.31.31,0,0,0,21.38,5H18.81a.31.31,0,0,0-.31.31V8.56l-5-5L0,17.09H3.5V28.48h6.94V22.92h6.25v5.56H23.5V17.09H27Z"/>
</symbol>

<symbol id="icon-location" viewBox="0 0 27 32">
<path fill="currentColor" d="M13.49,6.8a4.62,4.62,0,1,1-4.61,4.62A4.63,4.63,0,0,1,13.49,6.8Zm0-4.27a8.88,8.88,0,0,0-8.88,8.89A11,11,0,0,0,5.32,15L13.5,31.69,21.68,15a10.92,10.92,0,0,0,.71-3.56A8.89,8.89,0,0,0,13.49,2.53Z"/>
</symbol>

<symbol id="icon-client" viewBox="0 0 27 32">
<path fill="currentColor" d="M13.5,2.5A13.5,13.5,0,1,0,27,16,13.52,13.52,0,0,0,13.5,2.5ZM23,23.2a6.27,6.27,0,0,0-5.68-6h0a6.39,6.39,0,0,0-1-.49,8,8,0,0,0,1.94-4.74v-.13c0-.15,0-.3,0-.45s0-.21,0-.32a5.34,5.34,0,0,0-.06-.77A4.88,4.88,0,0,0,13.5,6a4.88,4.88,0,0,0-4.74,4.28A5.32,5.32,0,0,0,8.7,11c0,.11,0,.21,0,.32s0,.3,0,.45v.13a8,8,0,0,0,1.94,4.74,6.39,6.39,0,0,0-1,.49h0A6.27,6.27,0,0,0,4,23.2a11.91,11.91,0,1,1,19,0Z"/>
</symbol>

<symbol id="icon-key" viewBox="0 0 27 32">
<path fill="currentColor" id="key" d="M21.17,6.45a4.57,4.57,0,0,0,.19-1.3A4.46,4.46,0,0,0,13,2.89a4.67,4.67,0,0,0-1.76.24,5.05,5.05,0,0,0-3,2.56,5.14,5.14,0,0,0,.26,5.12L7.94,12a.85.85,0,0,0-.06.69l.26,1-.48.28a1.06,1.06,0,0,0-.48.73l-.1,1-.81.83A1.21,1.21,0,0,0,6,17l-.08.89-.75.8a.83.83,0,0,0-.18.24l-.69,1.35a.86.86,0,0,0-.1.58l.27,2a.94.94,0,0,0,.43.67.77.77,0,0,0,.81.11l2.15-.73a.9.9,0,0,0,.53-.48l4-7.88a6.05,6.05,0,0,0,1.6,1.3v1.7a.93.93,0,0,0,.25.64l.89,1-.45.7a1.06,1.06,0,0,0-.09.87L15,21.85l-.45,1.43a1.24,1.24,0,0,0,0,.62L15,25l-.42,1.29a.74.74,0,0,0-.07.35v1.83a.94.94,0,0,0,.19.58L16,31a.93.93,0,0,0,.83.42,1,1,0,0,0,.69-.29l1.92-1.95a1,1,0,0,0,.29-.69V15.85a6,6,0,0,0,3.06-5.23A5.68,5.68,0,0,0,21.17,6.45ZM16.52,26.8l.5-1.56a1.43,1.43,0,0,0,0-.65l-.43-1.08L17,22.08a1.25,1.25,0,0,0,0-.61l-.38-1,.56-.92a1,1,0,0,0-.1-1.17L16,17.13v-1.9a1,1,0,0,0-.62-.91A4,4,0,1,1,18.63,7a2.13,2.13,0,0,1-.32.26,2,2,0,0,0-3.43,1.2v.21a2,2,0,0,0,4,.54,4.08,4.08,0,0,0,1.3-1,4,4,0,0,1,.77,2.39,4,4,0,0,1-2.41,3.73,1,1,0,0,0-.62.92V28.08l-.84.83-.52-.74ZM11.89,7.38a5.94,5.94,0,0,0-1,3.23,6.24,6.24,0,0,0,.3,1.89L6.87,21.18l-.63.22-.07-.48.49-1L7.58,19a1.22,1.22,0,0,0,.29-.59L8,17.56l.8-.83a1.08,1.08,0,0,0,.29-.6l0-.8.68-.41a1,1,0,0,0,.43-1.08l-.35-1.3.68-1.33a.91.91,0,0,0-.13-1.09A3.17,3.17,0,0,1,10,6.6,3.09,3.09,0,0,1,11.85,5a2.86,2.86,0,0,1,1.06-.15,1.92,1.92,0,0,0-1,.89A1.86,1.86,0,0,0,11.89,7.38ZM19.4,5.19a6,6,0,0,0-2.51-.57h-.29a4.59,4.59,0,0,0-1.47-1.16L15,3.42a2.48,2.48,0,0,1,1.85-.84,2.54,2.54,0,0,1,2.51,2.57S19.41,5.18,19.4,5.19Z"/>
</symbol>


<symbol id="icon-brochure" viewBox="0 0 27 32">
<path d="M22.77,1H4.23a2,2,0,0,0-2,2V29a2,2,0,0,0,2,2H22.77a2,2,0,0,0,2-2V3A2,2,0,0,0,22.77,1Zm.76,28a.76.76,0,0,1-.76.76H4.23A.76.76,0,0,1,3.47,29V3a.76.76,0,0,1,.76-.76H22.77a.76.76,0,0,1,.76.76Z"/><path fill="currentColor" d="M13.5,27a1,1,0,0,0-1.09,1.09,1,1,0,0,0,1.09,1.09,1,1,0,0,0,1.09-1.09A1,1,0,0,0,13.5,27Z"/><path class="cls-1" d="M22.74,3.78H4.26a.2.2,0,0,0-.2.2V26.16a.2.2,0,0,0,.2.2H22.74a.2.2,0,0,0,.2-.2V4A.2.2,0,0,0,22.74,3.78ZM21.68,25.11H5.32V20.89c.58-.23,1.8-.7,3.48-1.22v.63h9.39V17.71c1.13-.12,2.3-.19,3.48-.22ZM8.1,14.73l5.39-5.43L16,11.8v-2h.92v2.88l2,2h-1.2V19.8H9.31V14.73ZM21.68,17c-1.18,0-2.35.1-3.48.22v-2H20.1l-2.71-2.72V9.73A.39.39,0,0,0,17,9.34H15.86a.39.39,0,0,0-.39.39v.86l-2-2L6.9,15.23H8.81v3.91c-1.61.49-2.82.94-3.48,1.2V5H21.68Z"/>
</symbol>


<symbol id="icon-messenger" viewBox="0 0 27 32">
<path fill="currentColor" d="M13.5,2.42C6,2.42,0,8,0,15a12.25,12.25,0,0,0,5,9.79v4.8L9.63,27a14.42,14.42,0,0,0,3.87.53C21,27.57,27,21.94,27,15S21,2.42,13.5,2.42Zm1.34,16.94L11.4,15.66,4.7,19.35l7.38-7.88,3.52,3.69,6.62-3.69Z"/>
</symbol>

<symbol id="icon-h2b" viewBox="0 0 172.9 172.9">
  <circle id="Background" style="fill:#FFFFFF;" cx="86.4" cy="86.4" r="85"/>
  <path id="Outer_Circle" style="fill:#0C6565;" d="M86.4,172.9C38.8,172.9,0,134.1,0,86.4S38.8,0,86.4,0c47.7,0,86.4,38.8,86.4,86.4
    S134.1,172.9,86.4,172.9z M86.4,4C41,4,4,41,4,86.4c0,45.5,37,82.4,82.4,82.4c45.5,0,82.4-37,82.4-82.4C168.9,41,131.9,4,86.4,4z"
    />
  <path id="Inner_circle" style="fill:#069697;" d="M86.4,161.7c-41.5,0-75.2-33.7-75.2-75.2C11.2,45,45,11.2,86.4,11.2
    c41.5,0,75.2,33.7,75.2,75.2C161.7,127.9,127.9,161.7,86.4,161.7z M86.4,17.2c-38.2,0-69.2,31.1-69.2,69.2s31.1,69.2,69.2,69.2
    c38.2,0,69.2-31.1,69.2-69.2S124.6,17.2,86.4,17.2z"/>
  <path id="House" style="fill:#0C6565;" d="M62.8,96.4H42h-2v-2V69.2h-6.5l-2.1-4.8l29.3-31.3l2.1-2.2l2.1,2.2l29.3,31.3l-2.1,4.8h-6.6l0,0
    H62.8 M81.4,36.3h-7.2v4l7.2,7.7V36.3z"/>
  <g id="Help">
    <path style="fill:#0C6565;" d="M77.7,96.1v-9.5h-6.2v9.5h-6V71.2h6v9.4h6.2v-9.4h6.1v24.9H77.7z"/>
    <path style="fill:#069697;" d="M99.1,90.6h6c-0.6,1.2-1.3,2.2-2.2,3.1c-0.9,0.9-1.9,1.6-3,2c-1.1,0.5-2.4,0.7-3.7,0.7H96
      c-1.8,0-3.4-0.4-4.9-1.3s-2.7-2.1-3.6-3.6s-1.3-3.2-1.3-4.9c0-0.1,0-0.3,0-0.6c0-0.3,0-0.4,0-0.6c0.1-1.3,0.5-2.4,1-3.5
      c0.6-1.1,1.3-2,2.3-2.8c0.9-0.8,2-1.4,3.1-1.8s2.3-0.7,3.5-0.7c0.9,0,1.7,0.1,2.7,0.4c1.3,0.4,2.6,1,3.6,2c1.1,0.9,1.9,2,2.5,3.4
      c0.7,1.6,1.1,3.7,1.1,6.2H91.8c0.3,0.9,0.7,1.6,1.2,2c0.5,0.5,1.2,0.8,2.1,0.9c0.1,0,0.3,0,0.5,0.1c0.2,0,0.4,0.1,0.5,0.1
      C97,91.7,98,91.3,99.1,90.6z M91.7,84.8h8.7c-0.4-1-1-1.7-1.8-2.2s-1.8-0.8-2.7-0.8c-0.6,0-1.2,0.1-1.8,0.4
      c-0.6,0.2-1.1,0.6-1.5,1C92.1,83.6,91.8,84.1,91.7,84.8z"/>
    <path style="fill:#069697;" d="M108.3,71.2h5.5v24.9h-5.5V71.2z"/>
    <path style="fill:#069697;" d="M122.6,93.9v8.3h-5.5V77.3h5.3v2.2c1.3-1.1,2.3-1.7,3.1-2c0.8-0.2,1.5-0.4,2.2-0.4c1,0,2,0.2,3.1,0.5
      c1.3,0.4,2.4,1.1,3.4,2s1.7,2,2.2,3.3s0.8,2.5,0.8,3.9c0,1.7-0.5,3.3-1.4,4.8s-2.1,2.6-3.5,3.5s-2.9,1.3-4.4,1.3
      C125.8,96.3,124,95.5,122.6,93.9z M122.4,86.6L122.4,86.6c-0.1,0.9,0.1,1.7,0.5,2.4c0.4,0.7,1,1.2,1.6,1.7
      c0.7,0.4,1.4,0.6,2.2,0.6l0.1,0.1c0.8,0,1.6-0.2,2.3-0.6s1.3-1,1.8-1.7c0.4-0.7,0.7-1.5,0.7-2.3c0-1-0.2-1.8-0.7-2.5
      s-1.1-1.2-1.8-1.6c-0.7-0.3-1.5-0.5-2.3-0.5s-1.5,0.2-2.2,0.5s-1.2,0.8-1.7,1.5C122.6,84.9,122.4,85.7,122.4,86.6z"/>
  </g>
  <g id="to_Buy">
    <path style="fill:#099798;" d="M43.4,112.4h-2.2v-4h2.2v-5.8h5.4v5.8h2.5v4h-2.5v14.1h-5.4V112.4z"/>
    <path style="fill:#099798;" d="M51.6,117.5c0-1.3,0.3-2.6,0.8-3.7c0.5-1.2,1.2-2.2,2.1-3c0.9-0.9,1.9-1.5,3.1-2c1.2-0.5,2.4-0.7,3.6-0.7
      c0.8,0,1.3,0,1.6,0.1c1.5,0.3,2.8,0.9,4,1.8s2.1,2.1,2.8,3.5c0.7,1.4,1,2.8,1,4.4v0.7c-0.2,1.6-0.7,3-1.6,4.4
      c-0.9,1.3-2,2.3-3.5,3.1c-1.4,0.7-2.9,1.1-4.5,1.1c-1.7,0-3.3-0.4-4.8-1.3s-2.6-2-3.4-3.5C52,120.8,51.6,119.2,51.6,117.5z
       M56.8,117.5c0,0.8,0.2,1.5,0.6,2.2c0.4,0.7,0.9,1.2,1.6,1.6c0.7,0.4,1.4,0.6,2.2,0.6s1.5-0.2,2.1-0.6c0.7-0.4,1.2-0.9,1.5-1.6
      c0.4-0.7,0.6-1.4,0.6-2.1c0-1.1-0.4-2.1-1.1-2.9c-0.7-0.9-1.6-1.4-2.7-1.5H61c-0.7,0-1.4,0.2-2.1,0.6c-0.7,0.4-1.2,1-1.6,1.6
      C57,116.1,56.8,116.8,56.8,117.5z"/>
    <path style="fill:#099798;" d="M83.3,126.6v-23.9h8.1c3.9,0,6.2,1.3,7.1,4c0.2,0.5,0.3,1.2,0.3,2s-0.1,1.5-0.3,2c-0.4,1.2-1.3,2.2-2.7,2.9
      c2,0.7,3.2,1.8,3.7,3.2c0.3,0.7,0.4,1.5,0.4,2.4c0,0.7-0.1,1.4-0.2,2c-0.3,1.1-0.8,2-1.5,2.9s-1.6,1.5-2.6,1.9
      c-0.7,0.2-1.4,0.4-2.2,0.4c-0.8,0.1-1.8,0.1-2.9,0.1L83.3,126.6L83.3,126.6z M88.9,111.9c0.1,0,0.3,0,0.5,0c0.3,0,0.5,0,0.6,0
      c2.3,0,3.4-0.6,3.4-1.9v-0.3c0-0.9-0.4-1.5-1-1.7c-0.7-0.3-1.5-0.4-2.5-0.4h-1V111.9z M88.9,121.6c0.1,0,0.4,0,0.8,0s0.6,0,0.8,0
      c1.1,0,2-0.2,2.7-0.5c0.6-0.3,1-1,1-2.1v-0.3c0-0.9-0.4-1.5-1.1-1.8s-1.6-0.5-2.6-0.5H89L88.9,121.6
      C89,121.6,88.9,121.6,88.9,121.6z"/>
    <path style="fill:#099798;" d="M113,108.5h5.2v18.1h-4.9v-2.4c-1.3,1.8-3.1,2.8-5.3,2.8h-0.4c-1.8-0.1-3.3-0.9-4.4-2.2
      c-0.8-1-1.2-2.4-1.2-4.3v-11.9h5.3v9.8c0,1.2,0.2,2.1,0.5,2.7c0.3,0.7,1,1,2.1,1l0.1-0.1c1,0,1.8-0.4,2.3-1
      c0.5-0.7,0.8-1.5,0.8-2.6L113,108.5L113,108.5z"/>
    <path style="fill:#099798;" d="M127.8,132.4h-5.3l2.7-7l-6.6-16.9h5.9l3.4,10.5l3.8-10.5h5.7L127.8,132.4z"/>
  </g>
</symbol>

<symbol id="icon-dh-logo" viewBox="0 0 615.3 1000">
  <g class="background">
    <rect fill="#B78958" width="615.3" height="1000"></rect>
  </g>
  <g class="dh-letters">
    <path class="letter-h" fill="#FFFFFF" d="M274,754.3c14.9-2,24.6-5.7,29.3-11c4.6-5.4,6.9-18,6.9-38V444c0-10.2-1.3-17.6-3.9-22.5
      c-2.6-4.8-9-7.2-19.2-7.2c-2,0-3.9,0.1-5.9,0.4c-1.9,0.3-4,0.6-6.4,1v-9.8c8-2.4,17.8-5.2,29.5-8.6c11.7-3.4,19.8-5.8,24.4-7.2
      l26.1-8.2l0.5,1.9v167.1c11.4-13.1,21.6-22.7,30.5-28.9c16-10.9,33.2-16.3,51.7-16.3c29.4,0,49.4,12.3,60.2,37
      c5.8,13.1,8.7,30.2,8.7,51.4v111.1c0,19.2,2.2,31.8,6.7,37.6c4.4,5.8,13.6,9.6,27.4,11.4v7.6H422.7v-7.6
      c15.8-2.2,25.9-5.9,30.5-11.2c4.5-5.3,6.8-17.9,6.8-37.8V595c0-17.6-3-31.8-8.8-42.7c-5.9-10.9-17-16.3-33.3-16.3
      c-14.2,0-27.9,5.1-41.1,15.2c-13.2,10.2-19.9,16.8-19.9,19.9v134.2c0,20.3,2.4,33,7.1,38.1c4.7,5.1,14.8,8.7,30.2,10.9v7.6H274
      V754.3z"></path>
    <path class="letter-d" fill="#6B1C56" d="M337.3,587.5c-12.3,0-19.9-2.3-22.8-7c-2.9-4.6-4.3-12.8-4.3-24.4l0-13.6c0,0,0,0.1,0,0.1V444
      c0-10.2-1.3-17.6-3.9-22.5c-2.6-4.8-9-7.2-19.2-7.2c-2,0-3.9,0.1-5.9,0.4c-1.9,0.3-4,0.6-6.4,1v-9.8c8-2.4,17.8-5.2,29.5-8.6
      c2.2-0.6,4.3-1.2,6.2-1.8l0.1-58.5c0-10.5,0.1-21.2,0.3-32c0.2-10.8,0.4-21.3,0.5-31.5l0.5-28.2l-1.6-0.5
      c-6.6,2.5-11.4,4.2-14.2,5.1c-6.1,2.1-13.1,4.4-21.2,6.7c-8,2.3-16.1,4.6-24.1,6.7l-22,5.6v8.8c5.5-0.5,9.1-0.9,10.7-1.1
      c1.6-0.2,3.5-0.3,5.6-0.3c9.1,0,14.9,2.1,17.3,6.2c2.4,4.1,3.6,11.6,3.6,22.5v85.3c-6.6-6.6-13.5-11.8-20.6-15.6
      c-10.9-5.7-22.9-8.6-35.9-8.6c-32.7,0-60.4,13.9-83,41.7c-22.6,27.8-33.9,61.1-33.9,99.9c0,30.9,9.4,58.2,28.3,81.7
      c18.9,23.5,43.5,35.3,73.9,35.3c17.2,0,32.3-4,45.3-12.1c7.3-4.6,16-12.4,26-23.3v33l1.9,2.4l42.1-15.8
      c24.8-8.6,37.8-13,38.9-13.4v-8.9c-2,0.4-3.9,0.6-5.9,0.7C341.3,587.4,339.3,587.5,337.3,587.5z M266.3,560.1
      c0,7.3-4.3,15.1-12.9,23.3c-8.6,8.2-19.8,12.3-33.8,12.3c-26.5,0-46.4-11.3-59.7-33.8c-13.3-22.5-20-48.2-20-77
      c0-29.1,6.3-53.7,18.8-73.6c12.5-19.9,30-29.9,52.6-29.9c11.8,0,23.9,4.8,36.3,14.3c12.4,9.6,18.6,26,18.6,49.2V560.1z"></path>
  </g>
</symbol>


</defs>
</svg>
